<svg xmlns="http://www.w3.org/2000/svg" xmlns:xlink="http://www.w3.org/1999/xlink" version="1.1" x="0px" y="0px" width="200px" height="200px" viewBox="0 0 200 200" enable-background="new 0 0 200 200" xml:space="preserve"><style>.style0{fill:	#0072C1;}.style1{fill:	#FFFFFF;}</style><rect width="200" height="200" class="style0"/><path d="M158.868 40.873C153.816 35.9 149.2 34 142.2 34H60.564c-7.142 0-13.652 1.884-18.639 6.9 C36.938 45.9 34 51.3 34 58.458V140.1c0 7.1 2.9 13.8 7.9 18.805C46.913 163.9 53.4 167 60.6 167H122v-24H60.564 c-0.862 0-2.564-2.038-2.564-2.9V58.458C58 57.6 59.7 58 60.6 58h81.643c0.737 0 0.793-0.401 0.8 0.458V140.1 c0 0 0 0 0 0.062v25.589c5-0.248 10.93-2.735 15.713-7.457c5.045-4.986 6.287-11.049 6.287-18.193V58.458 C165 51.3 163.9 45.9 158.9 40.873z" class="style1"/></svg>